<svg id="visual" viewBox="0 0 960 300" width="960" height="300" xmlns="http://www.w3.org/2000/svg" xmlns:xlink="http://www.w3.org/1999/xlink" version="1.1"><rect x="0" y="0" width="960" height="300" fill="#FFFFFF"></rect><path d="M0 101L22.8 104.2C45.7 107.3 91.3 113.7 137 112.2C182.7 110.7 228.3 101.3 274 101.3C319.7 101.3 365.3 110.7 411.2 115.3C457 120 503 120 548.8 117.8C594.7 115.7 640.3 111.3 686 106.8C731.7 102.3 777.3 97.7 823 97.7C868.7 97.7 914.3 102.3 937.2 104.7L960 107L960 0L937.2 0C914.3 0 868.7 0 823 0C777.3 0 731.7 0 686 0C640.3 0 594.7 0 548.8 0C503 0 457 0 411.2 0C365.3 0 319.7 0 274 0C228.3 0 182.7 0 137 0C91.3 0 45.7 0 22.8 0L0 0Z" fill="#fb923c"></path><path d="M0 101L22.8 99C45.7 97 91.3 93 137 92.8C182.7 92.7 228.3 96.3 274 92C319.7 87.7 365.3 75.3 411.2 75.2C457 75 503 87 548.8 88.5C594.7 90 640.3 81 686 76.2C731.7 71.3 777.3 70.7 823 70C868.7 69.3 914.3 68.7 937.2 68.3L960 68L960 0L937.2 0C914.3 0 868.7 0 823 0C777.3 0 731.7 0 686 0C640.3 0 594.7 0 548.8 0C503 0 457 0 411.2 0C365.3 0 319.7 0 274 0C228.3 0 182.7 0 137 0C91.3 0 45.7 0 22.8 0L0 0Z" fill="#fb8b33"></path><path d="M0 67L22.8 69C45.7 71 91.3 75 137 71.2C182.7 67.3 228.3 55.7 274 51.8C319.7 48 365.3 52 411.2 52.3C457 52.7 503 49.3 548.8 48C594.7 46.7 640.3 47.3 686 51.5C731.7 55.7 777.3 63.3 823 65.7C868.7 68 914.3 65 937.2 63.5L960 62L960 0L937.2 0C914.3 0 868.7 0 823 0C777.3 0 731.7 0 686 0C640.3 0 594.7 0 548.8 0C503 0 457 0 411.2 0C365.3 0 319.7 0 274 0C228.3 0 182.7 0 137 0C91.3 0 45.7 0 22.8 0L0 0Z" fill="#fa832a"></path><path d="M0 49L22.8 46.7C45.7 44.3 91.3 39.7 137 36.8C182.7 34 228.3 33 274 32.5C319.7 32 365.3 32 411.2 36.2C457 40.3 503 48.7 548.8 52.3C594.7 56 640.3 55 686 53.3C731.7 51.7 777.3 49.3 823 48.8C868.7 48.3 914.3 49.7 937.2 50.3L960 51L960 0L937.2 0C914.3 0 868.7 0 823 0C777.3 0 731.7 0 686 0C640.3 0 594.7 0 548.8 0C503 0 457 0 411.2 0C365.3 0 319.7 0 274 0C228.3 0 182.7 0 137 0C91.3 0 45.7 0 22.8 0L0 0Z" fill="#fa7b20"></path><path d="M0 12L22.8 14.5C45.7 17 91.3 22 137 25.3C182.7 28.7 228.3 30.3 274 31.8C319.7 33.3 365.3 34.7 411.2 34.5C457 34.3 503 32.7 548.8 32.3C594.7 32 640.3 33 686 32.7C731.7 32.3 777.3 30.7 823 27.7C868.7 24.7 914.3 20.3 937.2 18.2L960 16L960 0L937.2 0C914.3 0 868.7 0 823 0C777.3 0 731.7 0 686 0C640.3 0 594.7 0 548.8 0C503 0 457 0 411.2 0C365.3 0 319.7 0 274 0C228.3 0 182.7 0 137 0C91.3 0 45.7 0 22.8 0L0 0Z" fill="#f97316"></path></svg>