<svg id="visual" viewBox="0 0 960 300" width="960" height="300" xmlns="http://www.w3.org/2000/svg" xmlns:xlink="http://www.w3.org/1999/xlink" version="1.1"><rect x="0" y="0" width="960" height="300" fill="#FFFFFF"></rect><path d="M0 197L22.8 193.8C45.7 190.7 91.3 184.3 137 185.8C182.7 187.3 228.3 196.7 274 196.7C319.7 196.7 365.3 187.3 411.2 182.7C457 178 503 178 548.8 180.2C594.7 182.3 640.3 186.7 686 191.2C731.7 195.7 777.3 200.3 823 200.3C868.7 200.3 914.3 195.7 937.2 193.3L960 191L960 301L937.2 301C914.3 301 868.7 301 823 301C777.3 301 731.7 301 686 301C640.3 301 594.7 301 548.8 301C503 301 457 301 411.2 301C365.3 301 319.7 301 274 301C228.3 301 182.7 301 137 301C91.3 301 45.7 301 22.8 301L0 301Z" fill="#fb923c"></path><path d="M0 197L22.8 199C45.7 201 91.3 205 137 205.2C182.7 205.3 228.3 201.7 274 206C319.7 210.3 365.3 222.7 411.2 222.8C457 223 503 211 548.8 209.5C594.7 208 640.3 217 686 221.8C731.7 226.7 777.3 227.3 823 228C868.7 228.7 914.3 229.3 937.2 229.7L960 230L960 301L937.2 301C914.3 301 868.7 301 823 301C777.3 301 731.7 301 686 301C640.3 301 594.7 301 548.8 301C503 301 457 301 411.2 301C365.3 301 319.7 301 274 301C228.3 301 182.7 301 137 301C91.3 301 45.7 301 22.8 301L0 301Z" fill="#fb8b33"></path><path d="M0 231L22.8 229C45.7 227 91.3 223 137 226.8C182.7 230.7 228.3 242.3 274 246.2C319.7 250 365.3 246 411.2 245.7C457 245.3 503 248.7 548.8 250C594.7 251.3 640.3 250.7 686 246.5C731.7 242.3 777.3 234.7 823 232.3C868.7 230 914.3 233 937.2 234.5L960 236L960 301L937.2 301C914.3 301 868.7 301 823 301C777.3 301 731.7 301 686 301C640.3 301 594.7 301 548.8 301C503 301 457 301 411.2 301C365.3 301 319.7 301 274 301C228.3 301 182.7 301 137 301C91.3 301 45.7 301 22.8 301L0 301Z" fill="#fa832a"></path><path d="M0 249L22.8 251.3C45.7 253.7 91.3 258.3 137 261.2C182.7 264 228.3 265 274 265.5C319.7 266 365.3 266 411.2 261.8C457 257.7 503 249.3 548.8 245.7C594.7 242 640.3 243 686 244.7C731.7 246.3 777.3 248.7 823 249.2C868.7 249.7 914.3 248.3 937.2 247.7L960 247L960 301L937.2 301C914.3 301 868.7 301 823 301C777.3 301 731.7 301 686 301C640.3 301 594.7 301 548.8 301C503 301 457 301 411.2 301C365.3 301 319.7 301 274 301C228.3 301 182.7 301 137 301C91.3 301 45.7 301 22.8 301L0 301Z" fill="#fa7b20"></path><path d="M0 286L22.8 283.5C45.7 281 91.3 276 137 272.7C182.7 269.3 228.3 267.7 274 266.2C319.7 264.7 365.3 263.3 411.2 263.5C457 263.7 503 265.3 548.8 265.7C594.7 266 640.3 265 686 265.3C731.7 265.7 777.3 267.3 823 270.3C868.7 273.3 914.3 277.7 937.2 279.8L960 282L960 301L937.2 301C914.3 301 868.7 301 823 301C777.3 301 731.7 301 686 301C640.3 301 594.7 301 548.8 301C503 301 457 301 411.2 301C365.3 301 319.7 301 274 301C228.3 301 182.7 301 137 301C91.3 301 45.7 301 22.8 301L0 301Z" fill="#f97316"></path></svg>